# xmcd
#
# Track frame offsets:
# 150
# 17603
# 32857
# 52053
# 65834
# 84182
# 100034
# 116963
# 134819
# 149239
# 161992
# 180076
#
# Disc length: 2604 seconds
#
#
# Revision: 0
# Processed by: cddbd v1.4PL0 Copyright (c) Steve Scherf et al.
# Submitted via: FreeRIP 2.35 
#
DISCID=b20a2a0c
DTITLE=дглгтягс йоййотас - ема
DYEAR=1900
DGENRE=Folk
TTITLE0=то йаме
TTITLE1=ема
TTITLE2=айола
TTITLE3=пес то лоу йи ауто
TTITLE4=лоу кеипеи
TTITLE5=ха цуяисеи се лема
TTITLE6=фгтаы покка
TTITLE7=пкгцысе ле
TTITLE8=дем жтаис есу
TTITLE9=ха пы.дем анифес
TTITLE10=ха то деис
TTITLE11=ти соу йама ма' неяа
EXTD=
EXTT0=
EXTT1=
EXTT2=
EXTT3=
EXTT4=
EXTT5=
EXTT6=
EXTT7=
EXTT8=
EXTT9=
EXTT10=
EXTT11=
PLAYORDER=
